<?xml version="1.0" encoding="utf-8"?>
<!-- Generator: Adobe Illustrator 24.1.1, SVG Export Plug-In . SVG Version: 6.00 Build 0)  -->
<svg version="1.1" id="Layer_1" xmlns="http://www.w3.org/2000/svg" xmlns:xlink="http://www.w3.org/1999/xlink" x="0px" y="0px"
	 viewBox="0 0 138.06 160.78" style="enable-background:new 0 0 138.06 160.78;" xml:space="preserve">
<style type="text/css">
	.st0{fill:#8F201F;enable-background:new    ;}
	.st1{fill:#B5282F;enable-background:new    ;}
	.st2{enable-background:new    ;}
	.st3{fill:#B4282F;}
	.st4{fill:#8E201F;enable-background:new    ;}
	.st5{fill:#9C1D22;}
	.st6{fill:#73211C;enable-background:new    ;}
</style>
<polyline class="st0" points="98.71,117.06 94.98,111.75 98.1,107.38 106.46,117.06 98.71,117.06 "/>
<path class="st1" d="M0,0v139.01h138.06V0H0z M122.84,123.7H15.22V15.31h107.62V123.7z"/>
<g class="st2">
	<path class="st3" d="M16.59,149.45h4.05l4.42,11.33h-4.14l-0.59-1.66h-3.6l-0.56,1.66h-4.03L16.59,149.45z M18.56,153.4l-0.93,2.8
		h1.84L18.56,153.4z"/>
	<path class="st3" d="M30.33,149.45h3.84v8.05h3.76v3.28h-7.6V149.45z"/>
	<path class="st3" d="M50.51,156.47h-3.1v4.3H43.6v-11.33h3.79v3.84h3.1v-3.84h3.82v11.33h-3.81V156.47z"/>
	<path class="st3" d="M64.06,149.45h4.05l4.42,11.33h-4.14l-0.59-1.66h-3.6l-0.56,1.66H59.6L64.06,149.45z M66.03,153.4l-0.93,2.8
		h1.84L66.03,153.4z"/>
	<path class="st3" d="M81.18,154.37l0.18,6.4H77.8v-11.33h4.98l2.05,6.1h0.08l1.78-6.1h5.14v11.33h-3.71l0.11-6.37l-0.1-0.02
		l-2.11,6.38h-2.69l-2.08-6.4H81.18z"/>
	<path class="st3" d="M98.41,149.45h4.88c0.55,0,1.11,0.06,1.66,0.17c0.55,0.11,1.04,0.31,1.47,0.59c0.43,0.28,0.78,0.66,1.05,1.14
		c0.27,0.47,0.4,1.07,0.4,1.78c0,0.69-0.17,1.3-0.51,1.83c-0.34,0.53-0.83,0.94-1.47,1.22l2.88,4.59h-4.37l-2.17-4.05h-0.11v4.05
		h-3.7V149.45z M102.08,154.23h0.75c0.13,0,0.27-0.01,0.42-0.03c0.15-0.02,0.3-0.07,0.43-0.14c0.13-0.07,0.24-0.17,0.33-0.29
		c0.09-0.12,0.13-0.29,0.13-0.49c0-0.2-0.04-0.36-0.11-0.48s-0.17-0.21-0.29-0.26c-0.12-0.06-0.24-0.1-0.38-0.11
		c-0.14-0.02-0.26-0.02-0.38-0.02h-0.9V154.23z"/>
	<path class="st3" d="M117.47,149.45h4.05l4.42,11.33h-4.14l-0.59-1.66h-3.6l-0.56,1.66h-4.03L117.47,149.45z M119.44,153.4
		l-0.93,2.8h1.84L119.44,153.4z"/>
</g>
<polygon class="st1" points="54.63,82.06 65.38,93.02 55.01,117.06 21.05,117.05 "/>
<polygon class="st4" points="81.4,109.35 77.86,117.06 55.01,117.06 65.38,93.02 "/>
<polygon class="st1" points="70.1,82.06 84.24,103.13 81.4,109.35 65.38,93.02 "/>
<polygon class="st5" points="93.58,117.04 91.21,117.03 92.42,115.33 "/>
<polygon class="st6" points="87,115.06 86.01,117.01 85.98,117.06 77.86,117.06 81.4,109.35 "/>
<polygon class="st0" points="89.27,110.62 87,115.06 81.4,109.35 84.24,103.13 "/>
<polygon class="st5" points="93.58,117.04 91.21,117.03 92.42,115.33 "/>
<polygon class="st1" points="94.98,111.75 92.42,115.32 89.27,110.62 84.24,103.13 86.09,99.09 91.34,106.57 "/>
<polygon class="st6" points="92.42,115.32 92.42,115.33 91.21,117.03 88.92,117.02 87,115.06 89.27,110.62 "/>
<polygon class="st1" points="98.1,107.38 94.98,111.75 91.34,106.57 93.59,102.16 "/>
<polygon class="st0" points="91.34,106.57 94.98,111.75 92.42,115.32 89.27,110.62 "/>
<polygon class="st6" points="93.58,117.04 91.21,117.03 92.42,115.33 "/>
<polygon class="st6" points="98.71,117.06 93.58,117.04 92.42,115.33 92.42,115.32 94.98,111.75 "/>
<polygon class="st6" points="93.58,117.04 91.21,117.03 92.42,115.33 "/>
<polygon class="st6" points="88.92,117.02 85.98,117.06 87,115.06 "/>
<polygon class="st1" points="106.46,117.06 98.1,107.38 100.45,104.09 117.15,117.08 "/>
</svg>
